<svg xmlns="http://www.w3.org/2000/svg" xmlns:xlink="http://www.w3.org/1999/xlink" version="1.1" x="0px" y="0px" viewBox="0 0 48 48" style="enable-background:new 0 0 48 48;" xml:space="preserve"><g><path d="M17.7,15.3c2,0,3.6-1.6,3.6-3.6c0-1.8-2.9-5.1-3.2-5.5l-0.4-0.4l-0.4,0.4c-0.3,0.3-3.2,3.7-3.2,5.5   C14.1,13.7,15.7,15.3,17.7,15.3z M17.7,7.3c1.1,1.3,2.6,3.4,2.6,4.4c0,1.4-1.2,2.6-2.6,2.6c-1.4,0-2.6-1.2-2.6-2.6   C15.1,10.7,16.6,8.7,17.7,7.3z"/><path d="M17.2,22.1h1c0-1.5,1.2-2.7,2.7-2.7c1.4,0,2.7,1.3,2.7,2.7c0,1.5-1.2,2.7-2.7,2.7H6.3v1h14.6c2,0,3.7-1.7,3.7-3.7   s-1.7-3.7-3.7-3.7S17.2,20.1,17.2,22.1z"/><path d="M26.7,30.9H6.3v1h20.4c2.2,0,4,1.8,4,4c0,2.2-1.8,4-4,4s-4-1.8-4-4h-1c0,2.8,2.2,5,5,5s5-2.2,5-5   C31.7,33.1,29.5,30.9,26.7,30.9z"/><path d="M9.5,21.9c2,0,3.6-1.6,3.6-3.6c0-1.8-3-5.1-3.3-5.5l-0.4-0.4L9,12.8c-0.3,0.3-3.2,3.7-3.2,5.5C5.8,20.3,7.5,21.9,9.5,21.9z    M9.4,13.9c1.2,1.3,2.7,3.4,2.7,4.4c0,1.4-1.2,2.6-2.6,2.6c-1.5,0-2.7-1.2-2.7-2.6C6.8,17.4,8.3,15.3,9.4,13.9z"/><path d="M35.4,15c-3.9,0-7,3.1-7,7h1c0-3.3,2.7-6,6-6c3.3,0,6,2.7,6,6s-2.7,6-6,6H6.3v1h29.1c3.9,0,7-3.1,7-7S39.3,15,35.4,15z"/></g></svg>