<svg xmlns="http://www.w3.org/2000/svg" xmlns:xlink="http://www.w3.org/1999/xlink" version="1.1" x="0px" y="0px" viewBox="0 0 100 100" enable-background="new 0 0 100 100" xml:space="preserve"><g><path d="M51.013,5.413c-0.564-0.55-1.462-0.55-2.027,0L5.438,47.881C5.157,48.155,5,48.527,5,48.92v44.628   c0,0.382,0.155,0.756,0.425,1.026C5.696,94.845,6.07,95,6.452,95h87.096c0.382,0,0.756-0.155,1.026-0.425   c0.27-0.27,0.425-0.644,0.425-1.026V48.92c0-0.393-0.157-0.765-0.438-1.039L51.013,5.413z M7.904,49.532L50,8.48l42.096,41.052   v42.565H7.904V49.532z"/><path d="M74.252,61.29l-3.087-3.087l3.087-3.087c0.567-0.567,0.567-1.486,0-2.053c-0.567-0.567-1.486-0.567-2.053,0l-3.676,3.676   H53.49l10.625-10.625h5.225c0.802,0,1.451-0.65,1.451-1.451c0-0.802-0.65-1.451-1.451-1.451v0h-4.376v-4.319   c0-0.802-0.65-1.452-1.452-1.452s-1.452,0.65-1.452,1.452v5.171L51.438,54.686V39.758l3.738-3.79   c0.563-0.571,0.557-1.49-0.014-2.053c-0.571-0.563-1.49-0.557-2.053,0.014l0,0l-3.087,3.13l-3.137-3.137   c-0.567-0.567-1.486-0.567-2.053,0c-0.567,0.567-0.567,1.486,0,2.053l3.703,3.703v15.007L37.939,44.09v-5.199   c0-0.802-0.65-1.452-1.452-1.452c-0.802,0-1.452,0.65-1.452,1.452v4.319h-4.319c-0.802,0-1.452,0.65-1.452,1.452   c0,0.802,0.65,1.452,1.452,1.452l5.14,0l10.625,10.625H31.482l-3.675-3.726c-0.563-0.571-1.482-0.577-2.053-0.014   c-0.571,0.563-0.577,1.482-0.014,2.053l0,0l3.101,3.145l-3.094,3.094c-0.567,0.567-0.567,1.486,0,2.053   c0.567,0.567,1.486,0.567,2.053,0l3.689-3.689h14.979L35.888,70.236h-5.171c-0.802,0-1.452,0.65-1.452,1.452   c0,0.802,0.65,1.452,1.452,1.452v0h4.319v4.376c0,0.802,0.65,1.452,1.452,1.452c0.802,0,1.452-0.65,1.452-1.452l0-5.225   l10.596-10.595v14.981l-3.653,3.705c-0.563,0.571-0.556,1.49,0.014,2.053c0.571,0.563,1.49,0.557,2.053-0.014l0,0l3.059-3.102   l3.109,3.109c0.567,0.567,1.486,0.567,2.053,0c0.567-0.567,0.567-1.486,0-2.053l-3.731-3.731V61.694l10.623,10.623v5.197   c0,0.802,0.65,1.452,1.452,1.452s1.452-0.65,1.452-1.452v-4.376l4.376,0c0.802,0,1.451-0.65,1.451-1.451   c0-0.802-0.65-1.451-1.451-1.451l-5.256,0L53.49,59.642h15.007l3.702,3.702c0.567,0.567,1.486,0.567,2.053,0   C74.819,62.776,74.819,61.857,74.252,61.29L74.252,61.29z"/></g></svg>