<svg xmlns="http://www.w3.org/2000/svg" xmlns:xlink="http://www.w3.org/1999/xlink" version="1.1" x="0px" y="0px" viewBox="0 0 35 35" enable-background="new 0 0 35 35" xml:space="preserve"><g><polygon points="17.5,1.5 1.5,7.5 33.5,7.5  "/><path d="M1.5,9.5v1c0,1.1,0.9,2,2,2c1.1,0,2-0.9,2-2c0,1.1,0.9,2,2,2c1.1,0,2-0.9,2-2c0,1.1,0.9,2,2,2c1.1,0,2-0.9,2-2   c0,1.1,0.9,2,2,2c1.1,0,2-0.9,2-2c0,1.1,0.9,2,2,2c1.1,0,2-0.9,2-2c0,1.1,0.9,2,2,2c1.1,0,2-0.9,2-2c0,1.1,0.9,2,2,2   c1.1,0,2-0.9,2-2c0,1.1,0.9,2,2,2c1.1,0,2-0.9,2-2v-1C26,9.5,7.9,9.5,1.5,9.5z"/><path d="M25.8,30.5c-1.8,0-3.3,0.6-4.7,1.1c-0.7-0.5-1.5-0.9-2.6-1.2V14.7c-0.4-0.1-0.7-0.2-1-0.4c-0.3,0.2-0.6,0.3-1,0.4v15.2   c-1.4-0.3-2.9-0.4-4.6-0.4c-5.8,0-10.4,1.8-10.4,4h32C32.4,31.9,29.3,30.5,25.8,30.5z"/></g></svg>